<svg width="280" height="59" viewBox="0 0 280 59" fill="none" xmlns="http://www.w3.org/2000/svg">
<g clip-path="url(#clip0_2_37)">
<path d="M55 31.1226C55 20.0076 46.045 10.9976 35 10.9976C23.95 11.0001 14.995 20.0076 14.995 31.1251C14.995 41.1676 22.31 49.4926 31.87 51.0026V36.9401H26.795V31.1251H31.875V26.6876C31.875 21.6451 34.8625 18.8601 39.43 18.8601C41.62 18.8601 43.9075 19.2526 43.9075 19.2526V24.2026H41.385C38.9025 24.2026 38.1275 25.7551 38.1275 27.3476V31.1226H43.6725L42.7875 36.9376H38.125V51.0001C47.685 49.4901 55 41.1651 55 31.1226Z" fill="black"/>
</g>
<g clip-path="url(#clip1_2_37)">
<path d="M105 11C99.5725 11 98.89 11.025 96.7575 11.12C94.625 11.22 93.1725 11.555 91.9 12.05C90.5652 12.552 89.3562 13.3396 88.3575 14.3575C87.3402 15.3567 86.5528 16.5656 86.05 17.9C85.555 19.17 85.2175 20.625 85.12 22.75C85.025 24.8875 85 25.5675 85 31.0025C85 36.4325 85.025 37.1125 85.12 39.245C85.22 41.375 85.555 42.8275 86.05 44.1C86.5625 45.415 87.245 46.53 88.3575 47.6425C89.4675 48.755 90.5825 49.44 91.8975 49.95C93.1725 50.445 94.6225 50.7825 96.7525 50.88C98.8875 50.975 99.5675 51 105 51C110.433 51 111.11 50.975 113.245 50.88C115.373 50.78 116.83 50.445 118.103 49.95C119.436 49.4477 120.645 48.6602 121.642 47.6425C122.755 46.53 123.438 45.415 123.95 44.1C124.443 42.8275 124.78 41.375 124.88 39.245C124.975 37.1125 125 36.4325 125 31C125 25.5675 124.975 24.8875 124.88 22.7525C124.78 20.625 124.443 19.17 123.95 17.9C123.447 16.5656 122.66 15.3567 121.642 14.3575C120.644 13.3392 119.435 12.5516 118.1 12.05C116.825 11.555 115.37 11.2175 113.243 11.12C111.108 11.025 110.43 11 104.995 11H105.003H105ZM103.208 14.605H105.003C110.343 14.605 110.975 14.6225 113.083 14.72C115.032 14.8075 116.092 15.135 116.798 15.4075C117.73 15.77 118.397 16.205 119.097 16.905C119.798 17.605 120.23 18.27 120.593 19.205C120.868 19.9075 121.193 20.9675 121.28 22.9175C121.377 25.025 121.397 25.6575 121.397 30.995C121.397 36.3325 121.377 36.9675 121.28 39.075C121.193 41.025 120.865 42.0825 120.593 42.7875C120.272 43.6559 119.76 44.4411 119.095 45.085C118.395 45.785 117.73 46.2175 116.795 46.58C116.095 46.855 115.035 47.18 113.083 47.27C110.975 47.365 110.343 47.3875 105.003 47.3875C99.6625 47.3875 99.0275 47.365 96.92 47.27C94.97 47.18 93.9125 46.855 93.2075 46.58C92.3387 46.2598 91.5528 45.7489 90.9075 45.085C90.2419 44.4401 89.7293 43.6541 89.4075 42.785C89.135 42.0825 88.8075 41.0225 88.72 39.0725C88.625 36.965 88.605 36.3325 88.605 30.99C88.605 25.65 88.625 25.02 88.72 22.9125C88.81 20.9625 89.135 19.9025 89.41 19.1975C89.7725 18.265 90.2075 17.5975 90.9075 16.8975C91.6075 16.1975 92.2725 15.765 93.2075 15.4025C93.9125 15.1275 94.97 14.8025 96.92 14.7125C98.765 14.6275 99.48 14.6025 103.208 14.6V14.605ZM115.677 17.925C115.362 17.925 115.05 17.9871 114.759 18.1077C114.468 18.2283 114.203 18.4051 113.98 18.6279C113.758 18.8508 113.581 19.1154 113.46 19.4066C113.34 19.6977 113.278 20.0098 113.278 20.325C113.278 20.6402 113.34 20.9523 113.46 21.2434C113.581 21.5346 113.758 21.7992 113.98 22.0221C114.203 22.2449 114.468 22.4217 114.759 22.5423C115.05 22.6629 115.362 22.725 115.677 22.725C116.314 22.725 116.924 22.4721 117.375 22.0221C117.825 21.572 118.077 20.9615 118.077 20.325C118.077 19.6885 117.825 19.078 117.375 18.6279C116.924 18.1779 116.314 17.925 115.677 17.925ZM105.003 20.73C103.64 20.7087 102.287 20.9587 101.022 21.4654C99.7577 21.972 98.6063 22.7252 97.6354 23.6811C96.6645 24.6369 95.8934 25.7764 95.3671 27.0331C94.8408 28.2899 94.5698 29.6388 94.5698 31.0012C94.5698 32.3637 94.8408 33.7126 95.3671 34.9693C95.8934 36.2261 96.6645 37.3656 97.6354 38.3214C98.6063 39.2773 99.7577 40.0305 101.022 40.5371C102.287 41.0438 103.64 41.2938 105.003 41.2725C107.699 41.2304 110.271 40.1298 112.162 38.2081C114.054 36.2865 115.115 33.6979 115.115 31.0012C115.115 28.3046 114.054 25.716 112.162 23.7944C110.271 21.8727 107.699 20.7721 105.003 20.73ZM105.003 24.3325C106.771 24.3325 108.467 25.035 109.717 26.2854C110.968 27.5358 111.67 29.2317 111.67 31C111.67 32.7683 110.968 34.4642 109.717 35.7146C108.467 36.965 106.771 37.6675 105.003 37.6675C103.234 37.6675 101.538 36.965 100.288 35.7146C99.0375 34.4642 98.335 32.7683 98.335 31C98.335 29.2317 99.0375 27.5358 100.288 26.2854C101.538 25.035 103.234 24.3325 105.003 24.3325Z" fill="black"/>
</g>
<path d="M167.565 48.5C182.66 48.5 190.917 35.9925 190.917 25.165C190.917 24.815 190.917 24.46 190.903 24.11C192.51 22.9462 193.898 21.5054 195 19.855C193.498 20.5172 191.907 20.9535 190.278 21.15C191.994 20.1241 193.279 18.5099 193.895 16.6075C192.282 17.5628 190.518 18.2335 188.677 18.59C187.44 17.2726 185.804 16.3998 184.02 16.1069C182.237 15.814 180.407 16.1173 178.813 16.9699C177.22 17.8224 175.952 19.1766 175.206 20.8227C174.46 22.4688 174.278 24.3149 174.688 26.075C171.424 25.9114 168.232 25.0637 165.318 23.5869C162.403 22.1101 159.832 20.0371 157.77 17.5025C156.723 19.3102 156.404 21.4485 156.877 23.4832C157.349 25.5179 158.579 27.2963 160.315 28.4575C159.014 28.4133 157.741 28.0639 156.6 27.4375V27.55C156.602 29.4437 157.258 31.2786 158.457 32.7444C159.656 34.2103 161.324 35.2172 163.18 35.595C162.476 35.7891 161.748 35.8858 161.017 35.8825C160.502 35.8841 159.988 35.8364 159.483 35.74C160.007 37.3702 161.028 38.7954 162.403 39.8162C163.778 40.837 165.438 41.4021 167.15 41.4325C164.241 43.717 160.649 44.956 156.95 44.95C156.298 44.9528 155.647 44.9152 155 44.8375C158.754 47.2307 163.113 48.5014 167.565 48.5Z" fill="black"/>
<path d="M234.643 11L227.5 18.1425V43.8575H236.073V51L243.215 43.8575H248.925L261.785 31V11H234.643ZM258.927 29.5725L253.215 35.285H247.5L242.5 40.285V35.285H236.073V13.8575H258.927V29.5725Z" fill="black"/>
<path d="M254.643 18.8575H251.785V27.425H254.643V18.8575ZM246.785 18.8575H243.928V27.425H246.785V18.8575Z" fill="black"/>
<defs>
<clipPath id="clip0_2_37">
<rect width="40" height="40" fill="white" transform="translate(15 11)"/>
</clipPath>
<clipPath id="clip1_2_37">
<rect width="40" height="40" fill="white" transform="translate(85 11)"/>
</clipPath>
</defs>
</svg>
